<svg width="90" height="90" viewBox="0 0 90 90" fill="none" xmlns="http://www.w3.org/2000/svg">
<path d="M7.5 56.0963V33.9C7.5 31.7475 9.18 30 11.25 30H24.6975C25.1937 29.9983 25.6845 29.896 26.1402 29.6995C26.5958 29.5029 27.0069 29.2161 27.3488 28.8563L38.5988 16.1513C40.9613 13.6913 45 15.435 45 18.9113V71.0888C45 74.5913 40.9125 76.3201 38.565 73.8113L27.3525 61.1775C27.0097 60.8075 26.5944 60.512 26.1325 60.3094C25.6706 60.1069 25.1719 60.0016 24.6675 60H11.25C9.18 60 7.5 58.2525 7.5 56.0963Z" stroke="#FCFCFC" stroke-width="8" stroke-linecap="round" stroke-linejoin="round"/>
<path d="M60 31.875C64.9987 38.5425 64.9987 51.4575 60 58.125" stroke="#FCFCFC" stroke-width="8" stroke-linecap="round" stroke-linejoin="round"/>
<path d="M71.25 18.75C86.205 33.03 86.295 57.0638 71.25 71.25" stroke="#FCFCFC" stroke-width="8" stroke-linecap="round" stroke-linejoin="round"/>
</svg>
